<?xml version="1.0" encoding="utf-8"?>
<!-- Generator: Adobe Illustrator 25.2.1, SVG Export Plug-In . SVG Version: 6.00 Build 0)  -->
<svg version="1.1" id="Layer_1" xmlns="http://www.w3.org/2000/svg" xmlns:xlink="http://www.w3.org/1999/xlink" x="0px" y="0px"
	 viewBox="0 0 300 300" style="enable-background:new 0 0 300 300;" xml:space="preserve">
<style type="text/css">
	.st0{fill:url(#SVGID_1_);}
</style>
<g>
	<linearGradient id="SVGID_1_" gradientUnits="userSpaceOnUse" x1="92.4943" y1="59.9183" x2="175.295" y2="188.0793">
		<stop  offset="0" style="stop-color:#37B34A"/>
		<stop  offset="0.5168" style="stop-color:#26A9E0"/>
		<stop  offset="1" style="stop-color:#1B75BB"/>
	</linearGradient>
	<path class="st0" d="M132.79,98.25h79.7c22.76,0,41.28-18.28,41.28-40.74c0-22.46-18.52-40.74-41.28-40.74h-82.41
		c-41.6,0.54-74.37,32.97-82.56,74.55c16.36-28.05,47.23-47,82.56-47h82.41c7.57,0,13.73,5.92,13.73,13.19
		c0,7.28-6.16,13.2-13.73,13.2h-79.7c-47.02,0-85.27,37.62-85.27,83.87v87.32c0,22.76,18.28,41.28,40.74,41.28
		c22.46,0,40.74-18.52,40.74-41.28v-25.36c0-7.27,6.16-13.2,13.74-13.2h30.2c22.76,0,41.28-18.27,41.28-40.74
		s-18.52-40.74-41.28-40.74h-28.92c-23.81,0.31-42.9,21.2-42.56,47.52c8.19-11.89,24.09-19.98,42.31-19.98h29.16
		c7.57,0,13.73,5.92,13.73,13.2c0,7.28-6.16,13.19-13.73,13.19h-30.2c-22.76,0-41.28,18.28-41.28,40.74v25.36
		c0,7.57-5.92,13.74-13.19,13.74c-7.28,0-13.19-6.16-13.19-13.74v-87.32C75.06,123.52,100.96,98.25,132.79,98.25z"/>
</g>
</svg>
