<svg id="Layer_1" data-name="Layer 1" xmlns="http://www.w3.org/2000/svg" xmlns:xlink="http://www.w3.org/1999/xlink" viewBox="0 0 96 96"><defs><style>.cls-1{fill:url(#linear-gradient);}</style><linearGradient id="linear-gradient" x1="28.05" y1="17.1" x2="56.46" y2="61.08" gradientUnits="userSpaceOnUse"><stop offset="0" stop-color="#37b34a"/><stop offset="0.52" stop-color="#26a9e0"/><stop offset="1" stop-color="#1b75bb"/></linearGradient></defs><path class="cls-1" d="M41.87,30.25H69.22a14.09,14.09,0,0,0,14.17-14,14.09,14.09,0,0,0-14.17-14H40.94C26.67,2.48,15.42,13.6,12.61,27.87A32.75,32.75,0,0,1,40.94,11.74H69.22a4.63,4.63,0,0,1,4.72,4.53,4.63,4.63,0,0,1-4.72,4.53H41.87c-16.13,0-29.26,12.91-29.26,28.78v30a14,14,0,1,0,28,0v-8.7a4.63,4.63,0,0,1,4.72-4.53H55.65a14,14,0,1,0,0-28H45.73c-8.18.11-14.73,7.27-14.61,16.31,2.81-4.08,8.27-6.86,14.52-6.86h10a4.53,4.53,0,1,1,0,9.06H45.29a14.09,14.09,0,0,0-14.17,14v8.7a4.53,4.53,0,1,1-9.06,0v-30A19.6,19.6,0,0,1,41.87,30.25Z"/></svg>