<?xml version="1.0" encoding="utf-8"?>
<!-- Generator: Adobe Illustrator 25.2.1, SVG Export Plug-In . SVG Version: 6.00 Build 0)  -->
<svg version="1.1" id="Layer_1" xmlns="http://www.w3.org/2000/svg" xmlns:xlink="http://www.w3.org/1999/xlink" x="0px" y="0px"
	 viewBox="0 0 300 300" style="enable-background:new 0 0 300 300;" xml:space="preserve">
<style type="text/css">
	.st0{fill:url(#SVGID_1_);}
</style>
<g>
	<linearGradient id="SVGID_1_" gradientUnits="userSpaceOnUse" x1="107.1774" y1="82.6598" x2="169.0687" y2="178.4568">
		<stop  offset="0" style="stop-color:#37B34A"/>
		<stop  offset="0.5168" style="stop-color:#26A9E0"/>
		<stop  offset="1" style="stop-color:#1B75BB"/>
	</linearGradient>
	<path class="st0" d="M137.3,111.31h59.57c17.01,0,30.86-13.66,30.86-30.45c0-16.79-13.84-30.45-30.86-30.45h-61.6
		c-31.1,0.41-55.59,24.65-61.71,55.72C85.78,85.17,108.86,71,135.27,71h61.6c5.66,0,10.27,4.42,10.27,9.86
		c0,5.44-4.61,9.86-10.27,9.86H137.3c-35.15,0-63.74,28.12-63.74,62.69v65.27c0,17.01,13.66,30.86,30.45,30.86
		c16.79,0,30.45-13.84,30.45-30.86v-18.96c0-5.44,4.6-9.86,10.27-9.86h22.57c17.01,0,30.86-13.66,30.86-30.45
		s-13.84-30.45-30.86-30.45h-21.61c-17.8,0.23-32.07,15.84-31.81,35.52c6.12-8.89,18.01-14.93,31.63-14.93h21.8
		c5.66,0,10.27,4.42,10.27,9.86c0,5.44-4.6,9.86-10.27,9.86h-22.57c-17.01,0-30.86,13.66-30.86,30.45v18.96
		c0,5.66-4.42,10.27-9.86,10.27c-5.44,0-9.86-4.6-9.86-10.27v-65.27C94.15,130.2,113.5,111.31,137.3,111.31z"/>
</g>
</svg>
